<?xml version="1.0" encoding="UTF-8"?>
<svg id="b" xmlns="http://www.w3.org/2000/svg" version="1.1" viewBox="0 0 820 820">
  <g id="c">
    <circle cx="409" cy="420" r="168" fill="#ccc" stroke-width="0"/>
    <path d="M364.3,204.54l-14.14-68.56c-37.4,7.71-72.42,22.54-104.08,44.08l39.37,57.88c24-16.32,50.53-27.56,78.85-33.4h0Z" fill="#4d4d4d" stroke-width="0"/>
    <path d="M409,200c28.49,0,56.2,5.36,82.35,15.92l26.22-64.9c-34.52-13.95-71.05-21.02-108.57-21.02h-2.43l.57,70h1.86Z" fill="#4d4d4d" stroke-width="0"/>
    <path d="M189,420c0-14.02,1.32-28.04,3.94-41.68l-68.75-13.17c-3.44,17.96-5.19,36.42-5.19,54.85,0,19.53,1.96,39.05,5.82,58.04l68.6-13.94c-2.93-14.41-4.41-29.24-4.41-44.1h0Z" fill="#4d4d4d" stroke-width="0"/>
    <path d="M252.35,265.53l-49.84-49.15c-26.89,27.26-47.81,58.99-62.19,94.31l64.83,26.4c10.91-26.78,26.79-50.86,47.2-71.56Z" fill="#4d4d4d" stroke-width="0"/>
    <path d="M698.95,416.75h.02c0-.67-.03-1.34-.05-2.01-.02-1.2-.05-2.4-.08-3.61-.04-1.18-.08-2.37-.13-3.55-.05-1.23-.11-2.45-.17-3.67-.06-1.15-.13-2.29-.21-3.43-.08-1.26-.17-2.53-.27-3.79-.09-1.08-.18-2.15-.28-3.22-.12-1.34-.25-2.68-.39-4.02-.1-.96-.21-1.91-.32-2.87-.17-1.48-.34-2.95-.53-4.42-.1-.77-.21-1.54-.31-2.31-.23-1.68-.47-3.36-.73-5.03-.08-.52-.17-1.04-.25-1.55-.31-1.96-.65-3.91-1-5.85-.04-.19-.07-.39-.11-.58-3.14-17.07-7.81-33.74-13.91-49.83-4.81,7.6-10.46,14.67-16.91,21.12-11.19,11.19-24.22,19.98-38.72,26.11-.81.34-1.63.68-2.45,1,.79,3.07,1.52,6.16,2.17,9.27.04.2.08.39.12.59.3,1.47.59,2.94.87,4.42.11.57.2,1.14.3,1.71.2,1.12.39,2.23.57,3.35.12.76.23,1.52.35,2.28.14.95.29,1.9.42,2.85.12.85.22,1.7.33,2.55.11.88.22,1.76.32,2.65.1.88.19,1.76.28,2.64.09.87.17,1.74.25,2.61.08.88.15,1.75.21,2.63.07.89.13,1.79.19,2.68.06.86.1,1.71.15,2.57.05.93.09,1.85.13,2.78.03.83.06,1.67.09,2.5.03.95.05,1.91.07,2.86.02,1.26.04,2.51.04,3.77,0,1.78-.02,3.55-.06,5.33-.02.73-.05,1.45-.08,2.18-.03,1.04-.06,2.07-.11,3.11-.04.89-.1,1.79-.16,2.68-.05.86-.1,1.73-.16,2.59-.07.94-.15,1.88-.23,2.83-.07.81-.13,1.62-.21,2.43-.09.94-.19,1.87-.29,2.8-.09.82-.17,1.64-.27,2.46-.1.88-.22,1.76-.34,2.64-.12.88-.23,1.77-.36,2.65-.11.79-.24,1.57-.36,2.35-.15.99-.31,1.98-.47,2.97-.11.65-.23,1.3-.34,1.96-.2,1.14-.41,2.28-.63,3.42-.09.49-.19.97-.29,1.46-.27,1.33-.55,2.66-.84,3.99-.06.28-.13.57-.19.85-.35,1.57-.72,3.13-1.11,4.69,0,.04-.02.08-.03.12-2.6,10.39-5.96,20.59-10.09,30.57h.03c-5.48,13.26-12.27,25.97-20.31,37.97h-.01c-1.95,2.91-3.96,5.77-6.04,8.58-.23.31-.46.62-.7.93-.69.93-1.39,1.85-2.1,2.76-.67.86-1.34,1.72-2.02,2.57-.26.33-.52.66-.79.98-3.15,3.9-6.44,7.71-9.87,11.42v.03c-1.33,1.44-2.68,2.86-4.04,4.26h-.04c-.65.67-1.29,1.34-1.95,2-5.11,5.11-10.42,9.93-15.93,14.47-5.48,4.5-11.18,8.74-17.12,12.73l.02.03c-11.98,8.07-24.67,14.89-37.9,20.41l-.02-.04c-16.32,6.81-33.26,11.56-50.64,14.25-.37.06-.73.12-1.1.18-1.08.16-2.15.3-3.23.44-.73.1-1.46.21-2.19.3-.87.11-1.74.2-2.6.29-.93.1-1.87.22-2.8.31-.8.08-1.61.14-2.42.21-1,.09-1.99.18-2.99.26-.85.06-1.7.11-2.56.16-.95.06-1.9.13-2.85.17-.95.05-1.9.08-2.85.11-.86.03-1.72.07-2.58.09-1.01.03-2.03.03-3.05.04-.92.01-1.85.03-2.77.03-14.36,0-28.5-1.38-42.29-4.05-28.39-5.53-55.04-16.47-79.22-32.52l-.02.03c-12-7.98-23.29-17.2-33.73-27.6-.58-.58-1.14-1.16-1.71-1.74-.18-.19-.36-.37-.54-.56-19.39-19.88-34.66-42.86-45.39-68.38l-64.53,27.13c6.05,14.39,13.2,28.15,21.39,41.25h-.06c.55.88,1.13,1.74,1.69,2.61.07.1.14.21.2.31,1.18,1.83,2.38,3.66,3.6,5.47.28.42.58.83.86,1.25,1.07,1.57,2.15,3.14,3.25,4.69.7.99,1.43,1.97,2.15,2.95,1.11,1.52,2.24,3.04,3.38,4.54,1.14,1.49,2.28,2.98,3.44,4.45.54.68,1.09,1.35,1.64,2.02,1.1,1.36,2.2,2.72,3.33,4.06.59.7,1.19,1.4,1.79,2.1,1.1,1.29,2.22,2.58,3.35,3.86.63.71,1.26,1.42,1.89,2.12,1.13,1.26,2.28,2.5,3.44,3.74.64.69,1.29,1.38,1.94,2.07,1.22,1.29,2.47,2.56,3.72,3.82.47.47.92.96,1.39,1.43.15.15.29.28.44.43.14.14.28.29.42.43,54.68,54.22,127.14,84.08,204.19,84.08h.81c1.01,0,2.01-.02,3.02-.04,1.28-.02,2.56-.02,3.83-.06,1.1-.03,2.2-.08,3.29-.12l.02.04c1.3-.05,2.6-.09,3.9-.15,1.02-.05,2.03-.12,3.05-.19,1.38-.08,2.76-.16,4.14-.26.82-.06,1.63-.14,2.44-.21,1.59-.13,3.17-.26,4.75-.42.44-.04.88-.1,1.32-.15,56.63-5.89,109.69-28.11,153.65-64.39,14.18-11.65,27.16-24.59,38.88-38.71,37.24-44.68,59.91-98.88,65.53-156.73.05-.48.08-.96.12-1.44.17-1.87.34-3.74.48-5.62.09-1.21.15-2.42.22-3.63.07-1.16.15-2.33.21-3.49.08-1.66.13-3.33.18-5,.02-.73.06-1.46.08-2.19.06-2.4.09-4.81.09-7.22,0-1.08-.03-2.15-.04-3.23Z" fill="#4d4d4d" stroke-width="0"/>
    <g>
      <path d="M663.32,165.89c5.95,5.95,11.22,12.43,15.77,19.37l21.59-21.59-35.36-35.36-21.63,21.63c7.04,4.59,13.6,9.92,19.63,15.94Z" fill="#4d4d4d" stroke-width="0"/>
      <path d="M491.08,338.13c-6.03-6.03-11.35-12.59-15.94-19.63l-149.31,149.31,35.36,35.36,149.27-149.27c-6.94-4.56-13.42-9.82-19.37-15.77Z" fill="#4d4d4d" stroke-width="0"/>
    </g>
    <path d="M577.2,190.2c8.38,0,16.46,1.62,24.03,4.82,7.35,3.11,13.97,7.58,19.67,13.28s10.17,12.32,13.28,19.67c3.2,7.57,4.82,15.65,4.82,24.03s-1.62,16.46-4.82,24.03c-3.11,7.35-7.58,13.97-13.28,19.67s-12.32,10.17-19.67,13.28c-7.57,3.2-15.65,4.82-24.03,4.82s-16.46-1.62-24.03-4.82c-7.35-3.11-13.97-7.58-19.67-13.28s-10.17-12.32-13.28-19.67c-3.2-7.57-4.82-15.65-4.82-24.03s1.62-16.46,4.82-24.03c3.11-7.35,7.58-13.97,13.28-19.67s12.32-10.17,19.67-13.28c7.57-3.2,15.65-4.82,24.03-4.82M577.2,130.2c-16.45,0-32.4,3.22-47.4,9.56-14.5,6.13-27.53,14.92-38.72,26.11s-19.98,24.22-26.11,38.72c-6.35,15-9.56,30.95-9.56,47.4s3.22,32.4,9.56,47.4c6.13,14.5,14.92,27.53,26.11,38.72,11.19,11.19,24.22,19.98,38.72,26.11,15,6.35,30.95,9.56,47.4,9.56s32.4-3.22,47.4-9.56c14.5-6.13,27.53-14.92,38.72-26.11,11.19-11.19,19.98-24.22,26.11-38.72,6.35-15,9.56-30.95,9.56-47.4s-3.22-32.4-9.56-47.4c-6.13-14.5-14.92-27.53-26.11-38.72s-24.22-19.98-38.72-26.11c-15-6.35-30.95-9.56-47.4-9.56h0Z" fill="#4d4d4d" stroke-width="0"/>
  </g>
</svg>