<?xml version="1.0" encoding="UTF-8"?>
<svg id="b" xmlns="http://www.w3.org/2000/svg" version="1.1" viewBox="0 0 564.6 564.61">
  <g id="c">
    <path d="M143.49,99.47l-29.71-40.22c-23.62,17.45-44.28,38.39-61.4,62.24l40.62,29.16c14.08-19.61,31.06-36.83,50.48-51.18h.01Z" fill="#1876d1" stroke-width="0"/>
    <path d="M349.15,65.18l15.02-47.69c-27.15-8.55-55.46-12.88-84.17-12.88h-2.33l.41,50c24.25-.18,48.19,3.36,71.07,10.56h0Z" fill="#1876d1" stroke-width="0"/>
    <path d="M242.16,57.7l-8.16-49.33c-29,4.8-56.93,14.11-83.01,27.67l23.07,44.36c21.4-11.13,44.32-18.77,68.1-22.7Z" fill="#1876d1" stroke-width="0"/>
    <path d="M50,285.88l-50,.27c.16,29.49,4.89,58.53,14.06,86.31l47.48-15.68c-7.53-22.8-11.41-46.65-11.54-70.9Z" fill="#1876d1" stroke-width="0"/>
    <path d="M74.35,181.49l-44.68-22.45c-13.2,26.27-22.12,54.33-26.51,83.4l49.44,7.47c3.61-23.85,10.92-46.87,21.75-68.42Z" fill="#1876d1" stroke-width="0"/>
    <path d="M560,284.6c0-2.14-.03-4.28-.08-6.42-.02-.85-.05-1.7-.08-2.55-.04-1.25-.08-2.5-.14-3.75-.05-1.11-.11-2.22-.17-3.32-.05-.93-.11-1.87-.17-2.8-.09-1.31-.18-2.61-.29-3.92-.05-.63-.11-1.26-.16-1.88-.14-1.56-.28-3.12-.44-4.67,0-.03,0-.07-.01-.1-3.58-34.47-13.43-67.57-28.99-97.97-2.37,3.12-4.96,6.09-7.76,8.9-7.99,7.99-17.3,14.27-27.66,18.65-1.9.8-3.82,1.51-5.76,2.17,3.71,7.89,6.97,16,9.76,24.29h.04c3.81,11.34,6.72,23.01,8.72,34.92h0c.73,4.37,1.34,8.78,1.82,13.21.05.46.1.92.15,1.38.11,1.06.2,2.13.3,3.19.06.72.13,1.44.18,2.16.08.95.14,1.89.21,2.84.06.88.11,1.76.16,2.64.05.83.09,1.66.13,2.5.05,1.09.09,2.17.12,3.26.02.66.05,1.31.06,1.97.04,1.77.06,3.53.06,5.31s-.03,3.48-.06,5.22c-.01.58-.03,1.15-.05,1.73-.03,1.16-.08,2.32-.13,3.47-.03.69-.06,1.37-.1,2.06-.06,1.05-.12,2.1-.19,3.15-.05.72-.09,1.44-.15,2.16-.08,1.06-.18,2.11-.27,3.17-.14,1.57-.3,3.14-.47,4.7-.06.57-.12,1.13-.19,1.7-.14,1.17-.29,2.34-.45,3.51-.05.4-.11.79-.16,1.19-.18,1.3-.37,2.61-.57,3.91-.01.07-.02.13-.03.2-1.86,11.81-4.64,23.45-8.33,34.83h.03c-3.7,11.46-8.3,22.59-13.76,33.31l-.04-.02c-8.11,15.92-18.03,30.79-29.57,44.4-.16.19-.32.38-.48.56-.67.78-1.34,1.55-2.02,2.32-.5.57-1.01,1.15-1.52,1.72-.57.63-1.14,1.27-1.71,1.9-.69.76-1.39,1.51-2.1,2.26-.45.48-.91.97-1.36,1.45-1.21,1.26-2.43,2.52-3.66,3.76-8.52,8.52-17.61,16.28-27.15,23.27h-.01c-19.53,14.25-41.03,25.27-63.91,32.75v.04c-11.46,3.74-23.27,6.57-35.31,8.47-1.27.2-2.55.39-3.83.57-.41.06-.82.11-1.23.17-1.21.16-2.41.32-3.63.47-.27.03-.54.06-.81.09-2.13.25-4.27.46-6.42.65-.78.07-1.56.14-2.35.2-.85.07-1.69.12-2.54.18-.93.06-1.86.12-2.8.17-.76.04-1.52.08-2.28.11-1.11.05-2.21.09-3.32.12-.61.02-1.22.04-1.84.05-1.74.04-3.48.06-5.22.06s-3.44-.03-5.15-.06c-.61-.01-1.22-.03-1.83-.05-1.09-.03-2.18-.07-3.27-.12-.74-.03-1.49-.07-2.23-.11-.95-.05-1.89-.11-2.83-.17-.8-.05-1.61-.1-2.41-.16-.95-.07-1.9-.16-2.85-.24-1.6-.14-3.21-.3-4.8-.47-.55-.06-1.1-.12-1.65-.18-1.13-.13-2.26-.27-3.39-.42-.4-.05-.81-.11-1.21-.16-1.24-.17-2.48-.34-3.71-.53h0c-11.94-1.83-23.65-4.59-35.05-8.24v-.03c-22.91-7.36-44.47-18.27-64.08-32.42h0c-9.79-7.07-19.1-14.97-27.83-23.67-.33-.33-.66-.67-1-1.01-1.08-1.09-2.16-2.2-3.22-3.31-.27-.28-.54-.56-.8-.84-1.32-1.4-2.62-2.8-3.9-4.23h0c-13.11-14.6-24.27-30.76-33.28-48.2l-44.43,22.94c4.49,8.69,9.42,17.11,14.77,25.25h-.06c4.47,6.79,9.28,13.4,14.36,19.83.39.5.79.99,1.18,1.49.8,1,1.61,1.99,2.42,2.98.64.78,1.3,1.56,1.95,2.33.67.79,1.33,1.59,2,2.37,1.31,1.52,2.63,3.02,3.97,4.51.47.53.96,1.05,1.44,1.57,1.02,1.11,2.04,2.22,3.08,3.32.52.55,1.04,1.1,1.57,1.65,1.1,1.15,2.21,2.29,3.33,3.42.31.31.61.63.92.94.12.12.25.24.37.36.15.15.29.29.43.44h0c43.74,43.39,99.29,70.61,159.38,78.67.09.01.19.03.28.04,1.66.22,3.32.43,4.98.62.28.03.56.06.84.09,4.44.5,8.91.89,13.39,1.18,1.01.07,2.02.13,3.02.18.96.05,1.93.1,2.89.14,1.28.06,2.56.1,3.84.14.77.02,1.54.05,2.31.07,2.08.05,4.17.08,6.25.08h.02c2.11,0,4.21-.03,6.32-.08.78-.02,1.56-.05,2.33-.07,1.29-.04,2.58-.08,3.87-.14,1-.04,1.99-.09,2.99-.15,1.01-.06,2.01-.12,3.02-.18,1.17-.08,2.34-.15,3.51-.24.56-.04,1.11-.1,1.67-.14,65.84-5.49,127.01-33.75,174.26-81,.08-.08.16-.17.25-.25h0c1.42-1.42,2.83-2.87,4.22-4.32.55-.58,1.1-1.16,1.64-1.75.86-.91,1.71-1.83,2.56-2.75.71-.77,1.41-1.55,2.11-2.33.6-.67,1.2-1.35,1.79-2.02.85-.97,1.7-1.94,2.54-2.91.12-.14.23-.28.35-.42,34.73-40.77,56.71-89.97,63.92-142.7.01-.1.03-.2.04-.3.23-1.73.46-3.46.66-5.19.02-.15.03-.3.05-.46.32-2.76.59-5.54.83-8.32.07-.83.15-1.66.21-2.49.08-.99.14-1.98.2-2.97.08-1.18.15-2.36.22-3.53.05-.88.09-1.76.13-2.64.06-1.38.11-2.75.15-4.13.02-.72.05-1.44.06-2.16.05-2.11.08-4.22.08-6.34h0s0-.05,0-.05Z" fill="#1876d1" stroke-width="0"/>
    <path d="M521.71,43.09c3.55,3.55,6.74,7.37,9.6,11.42l33.29-33.29L543.39.01l-33.33,33.33c4.13,2.9,8.03,6.14,11.65,9.76h0Z" fill="#1876d1" stroke-width="0"/>
    <path d="M398.68,166.12c-3.62-3.62-6.86-7.52-9.76-11.65l-185.03,185.03,21.21,21.21,185-185c-4.05-2.86-7.87-6.05-11.42-9.6h0Z" fill="#1876d1" stroke-width="0"/>
    <path d="M460.2,57.61c6.37,0,12.52,1.23,18.28,3.67,5.59,2.36,10.62,5.76,14.95,10.09,4.33,4.33,7.73,9.37,10.09,14.95,2.44,5.76,3.67,11.91,3.67,18.28s-1.23,12.52-3.67,18.28c-2.36,5.59-5.76,10.62-10.09,14.95s-9.37,7.73-14.95,10.09c-5.76,2.44-11.91,3.67-18.28,3.67s-12.52-1.23-18.28-3.67c-5.59-2.36-10.62-5.76-14.95-10.09-4.33-4.33-7.73-9.37-10.09-14.96-2.44-5.76-3.67-11.91-3.67-18.28s1.23-12.52,3.67-18.28c2.36-5.59,5.76-10.62,10.09-14.95s9.37-7.73,14.96-10.09c5.76-2.44,11.91-3.67,18.28-3.67M460.2,17.61c-11.75,0-23.14,2.3-33.86,6.83-10.36,4.38-19.66,10.66-27.66,18.65-7.99,7.99-14.27,17.3-18.65,27.66-4.53,10.72-6.83,22.11-6.83,33.86s2.3,23.14,6.83,33.86c4.38,10.36,10.66,19.66,18.65,27.66,7.99,7.99,17.3,14.27,27.66,18.65,10.72,4.53,22.11,6.83,33.86,6.83s23.14-2.3,33.86-6.83c10.36-4.38,19.66-10.66,27.66-18.65,7.99-7.99,14.27-17.3,18.65-27.66,4.53-10.72,6.83-22.11,6.83-33.86s-2.3-23.14-6.83-33.86c-4.38-10.36-10.66-19.66-18.65-27.66-7.99-7.99-17.3-14.27-27.66-18.65-10.72-4.53-22.11-6.83-33.86-6.83h0Z" fill="#1876d1" stroke-width="0"/>
  </g>
</svg>