<?xml version="1.0" encoding="UTF-8"?><svg id="b" xmlns="http://www.w3.org/2000/svg" viewBox="0 0 1091.71 217.46"><g id="c"><path d="M130.53,153.87H30.89l-22.64,60.79H0L76.17,11.18h9.22l76.17,203.48h-8.25l-22.78-60.79ZM33.68,146.32h94.05L80.78,20.26l-47.1,126.06Z" style="fill:#4d4d4d; stroke-width:0px;"/><path d="M303.06,140.45c0,23.57-5.08,42.3-15.23,56.18-10.16,13.88-23.99,20.82-41.51,20.82-11.37,0-21.52-2.35-30.47-7.06s-15.98-11.25-21.1-19.64v23.9h-7.55V0h7.55v90.98c5.31-9.97,12.32-17.52,21.03-22.64,8.71-5.12,18.8-7.69,30.26-7.69,17.7,0,31.63,6.78,41.79,20.33,10.15,13.56,15.23,32.59,15.23,57.09v2.38ZM295.23,137.52c0-21.71-4.31-38.69-12.93-50.94-8.62-12.25-20.66-18.38-36.13-18.38-12.67,0-23.41,3.26-32.21,9.78-8.8,6.52-15.21,16.21-19.22,29.07v69.32c4,10.72,10.41,18.98,19.22,24.81,8.8,5.82,19.64,8.73,32.49,8.73,15.56,0,27.58-6.2,36.06-18.59,8.48-12.39,12.72-30.33,12.72-53.81Z" style="fill:#4d4d4d; stroke-width:0px;"/><path d="M329.83,136.12c0-14.44,2.77-27.41,8.32-38.92,5.54-11.51,13.37-20.47,23.48-26.9,10.11-6.43,21.54-9.64,34.31-9.64s24.04,3.12,34.1,9.36c10.06,6.24,17.91,15.09,23.55,26.55,5.64,11.46,8.5,24.37,8.59,38.71v6.71c0,14.53-2.75,27.53-8.25,38.99-5.5,11.46-13.3,20.4-23.41,26.83-10.11,6.43-21.55,9.64-34.31,9.64s-24.2-3.17-34.31-9.5c-10.11-6.33-17.96-15.21-23.55-26.62-5.59-11.41-8.43-24.25-8.52-38.5v-6.71ZM337.37,141.99c0,12.58,2.49,24.11,7.48,34.59,4.98,10.48,11.92,18.66,20.82,24.53,8.9,5.87,19.08,8.8,30.54,8.8,17.24,0,31.28-6.47,42.14-19.43,10.85-12.95,16.28-29.63,16.28-50.03v-4.33c0-12.39-2.52-23.85-7.55-34.38-5.03-10.53-12-18.75-20.89-24.67-8.9-5.92-18.98-8.87-30.26-8.87-17.24,0-31.3,6.57-42.21,19.71-10.9,13.14-16.35,29.68-16.35,49.61v4.47Z" style="fill:#4d4d4d; stroke-width:0px;"/><path d="M597.25,214.66v-24.46c-4.47,8.39-11,15.02-19.57,19.92-8.57,4.89-19.43,7.34-32.56,7.34-16.49,0-28.86-4.82-37.1-14.46-8.25-9.64-12.46-23.69-12.65-42.14V63.45h7.55v97.69c.19,16.03,3.82,28.16,10.9,36.41,7.08,8.25,17.42,12.37,31.03,12.37,14.44,0,26.18-3.4,35.22-10.2,9.04-6.8,14.77-16.77,17.19-29.91V63.45h7.69v151.21h-7.69Z" style="fill:#4d4d4d; stroke-width:0px;"/><path d="M666.64,22.64v40.81h34.38v7.55h-34.38v107.44c0,10.73,1.75,18.65,5.24,23.78,3.49,5.13,9.34,7.69,17.54,7.69,4.1,0,9.08-.42,14.95-1.26l1.26,7.13c-3.07,1.12-8.34,1.68-15.79,1.68-11,0-18.87-3.05-23.62-9.16-4.75-6.11-7.18-15.74-7.27-28.89v-108.41h-27.95v-7.55h27.95V22.64h7.69Z" style="fill:#4d4d4d; stroke-width:0px;"/><path d="M943.92,11.18v137.8c0,21.52-6.24,38.32-18.73,50.38-12.49,12.07-29.4,18.1-50.73,18.1s-38.25-6.03-50.73-18.1c-12.49-12.06-18.78-28.67-18.87-49.82V11.18h7.55v137.52c0,18.82,5.66,33.73,16.98,44.72,11.32,10.99,26.34,16.49,45.07,16.49s33.73-5.5,45-16.49c11.27-10.99,16.91-25.95,16.91-44.86V11.18h7.55Z" style="fill:#4d4d4d; stroke-width:0px;"/><path d="M1084.17,177.63c0-18.35-15.65-30.84-46.96-37.45-18.82-4-31.91-9.15-39.27-15.44-7.36-6.29-11.04-14.93-11.04-25.92s4.68-20.22,14.04-27.39c9.36-7.17,21.54-10.76,36.55-10.76,16.3,0,29.39,3.89,39.27,11.67,9.88,7.78,14.81,18.29,14.81,31.52h-7.69c0-10.15-4.29-18.63-12.86-25.44-8.57-6.8-19.75-10.2-33.54-10.2s-23.71,2.89-31.45,8.67c-7.73,5.78-11.6,13-11.6,21.66,0,6.8,1.44,12.14,4.33,16,2.89,3.87,7.59,7.36,14.12,10.48,6.52,3.12,16.02,6.13,28.51,9.01,12.48,2.89,22.36,6.29,29.63,10.2s12.53,8.55,15.79,13.91c3.26,5.36,4.89,11.9,4.89,19.64,0,11.93-4.89,21.52-14.67,28.79-9.78,7.27-22.59,10.9-38.43,10.9-16.96,0-30.63-3.84-41.02-11.53-10.39-7.69-15.58-17.58-15.58-29.7h7.55c.74,10.62,5.43,18.89,14.04,24.81,8.62,5.92,20.29,8.87,35.01,8.87,13.51,0,24.48-3.14,32.91-9.43,8.43-6.29,12.65-13.91,12.65-22.85Z" style="fill:#4d4d4d; stroke-width:0px;"/></g></svg>