<?xml version="1.0" encoding="UTF-8"?><svg id="b" xmlns="http://www.w3.org/2000/svg" viewBox="0 0 929.77 930"><g id="c"><path d="M464.77,845c-51.33,0-101.09-10.04-147.89-29.84-45.24-19.14-85.89-46.54-120.81-81.46-34.92-34.92-62.33-75.57-81.46-120.81-19.8-46.81-29.84-96.56-29.84-147.89s10.04-101.09,29.84-147.89c19.14-45.24,46.54-85.89,81.46-120.81,34.92-34.92,75.56-62.33,120.81-81.46,46.81-19.8,96.56-29.84,147.89-29.84s101.09,10.04,147.89,29.84c45.24,19.14,85.89,46.54,120.81,81.46,34.92,34.92,62.33,75.57,81.46,120.81,19.8,46.81,29.84,96.57,29.84,147.89s-10.04,101.09-29.84,147.89c-19.14,45.24-46.54,85.89-81.46,120.81-34.92,34.92-75.57,62.33-120.81,81.46-46.81,19.8-96.57,29.84-147.89,29.84Z" style="fill:#b3b3b3; stroke-width:0px;"/><rect x="443.34" y="197" width="562.86" height="16" transform="translate(67.34 572.56) rotate(-45)" style="fill:#1876d1; stroke-width:0px;"/><path d="M463.41,30l-.09-30c-27.59.08-55.24,2.61-82.17,7.5l5.36,29.52c25.2-4.58,51.07-6.94,76.9-7.02Z" style="fill:#1876d1; stroke-width:0px;"/><path d="M151.88,162.8l-21.58-20.84c-19.11,19.79-36.57,41.38-51.88,64.19l24.91,16.72c14.33-21.34,30.66-41.55,48.55-60.07Z" style="fill:#1876d1; stroke-width:0px;"/><path d="M348.84,45.61l-7.98-28.92c-26.49,7.31-52.5,17.05-77.3,28.98l13,27.04c23.19-11.15,47.51-20.26,72.28-27.09Z" style="fill:#1876d1; stroke-width:0px;"/><path d="M585.86,15.92c-26.49-7.13-53.84-11.92-81.29-14.25l-2.54,29.89c25.68,2.18,51.26,6.66,76.04,13.32l7.79-28.97Z" style="fill:#1876d1; stroke-width:0px;"/><path d="M699.88,63.73c-23.74-13.94-48.86-25.82-74.64-35.3l-10.35,28.16c24.11,8.87,47.6,19.97,69.81,33.01l15.19-25.87Z" style="fill:#1876d1; stroke-width:0px;"/><path d="M242.52,90.98l-15.35-25.78c-23.59,14.05-46.1,30.32-66.89,48.34l19.65,22.67c19.45-16.87,40.51-32.08,62.58-45.23Z" style="fill:#1876d1; stroke-width:0px;"/><path d="M48.86,592.86l-28.68,8.81c8.07,26.27,18.56,51.98,31.19,76.43l26.65-13.77c-11.81-22.86-21.62-46.91-29.16-71.47Z" style="fill:#1876d1; stroke-width:0px;"/><path d="M29.99,478.8l-29.99.93c.86,27.56,4.17,55.13,9.83,81.93l29.35-6.21c-5.3-25.07-8.4-50.86-9.2-76.66Z" style="fill:#1876d1; stroke-width:0px;"/><path d="M83.23,255.88l-26.29-14.44c-13.25,24.13-24.41,49.58-33.14,75.63l28.44,9.54c8.17-24.36,18.6-48.15,30.99-70.72Z" style="fill:#1876d1; stroke-width:0px;"/><path d="M41.61,363.75l-29.18-6.96c-6.36,26.67-10.36,54.14-11.91,81.66l29.95,1.69c1.45-25.75,5.2-51.45,11.14-76.39Z" style="fill:#1876d1; stroke-width:0px;"/><path d="M889.01,655.66c.17-.37.33-.74.49-1.11,1.27-2.84,2.51-5.68,3.73-8.55,1.28-3.03,2.52-6.07,3.74-9.12.06-.16.13-.31.19-.47.61-1.54,1.21-3.08,1.81-4.62.02-.05.04-.11.06-.16,17.93-46.65,28.09-95.52,30.29-145.72,0-.17.01-.34.02-.51.06-1.47.12-2.94.17-4.42.02-.52.03-1.04.05-1.56.04-1.2.07-2.4.1-3.6.02-.9.03-1.81.05-2.71.01-.88.03-1.75.04-2.63.02-1.83.03-3.65.03-5.48,0-2.69-.03-5.38-.08-8.06,0-.51-.02-1.02-.03-1.53-1.14-56.73-12.37-111.86-33.44-164.11-.18-.46-.36-.92-.55-1.37-.35-.85-.7-1.7-1.05-2.54-.37-.9-.74-1.8-1.12-2.7-.1-.23-.19-.46-.28-.68-.23-.53-.46-1.07-.69-1.6-.39-.9-.77-1.8-1.16-2.7-.35-.8-.7-1.59-1.05-2.38-.22-.49-.43-.98-.65-1.47h0c-22.51-50.53-53.56-96.21-92.44-135.95h0c-.06-.06-.12-.12-.18-.18-1.16-1.18-2.31-2.36-3.48-3.52-.88-.88-1.78-1.75-2.67-2.63-.5-.49-1-.99-1.5-1.48-2.29-2.23-4.6-4.45-6.93-6.63,0,0-.01,0-.02-.01-2.45-2.29-4.92-4.55-7.41-6.78-.13-.11-.25-.23-.38-.34-8.03-7.19-16.28-14.1-24.74-20.68v.05c-5.06-3.93-10.18-7.77-15.38-11.48l-17.42,24.42c12.9,9.2,25.34,19.16,37.2,29.74.23.2.45.4.68.6,2.27,2.04,4.52,4.09,6.75,6.18.39.36.77.74,1.16,1.1,1.75,1.65,3.49,3.31,5.21,4.99.7.68,1.39,1.36,2.08,2.04,1.26,1.24,2.51,2.5,3.75,3.75,9.73,9.83,18.94,20.04,27.63,30.64h0c16.18,19.78,30.69,41.08,43.13,63.32,7.2,12.89,13.75,26.17,19.64,39.83.53,1.23,1.07,2.45,1.59,3.69.16.38.31.76.47,1.14,8.57,20.56,15.59,41.85,20.88,63.45h.02c3.07,12.5,5.57,25.14,7.51,37.89h-.02c2.85,18.76,4.49,37.91,4.88,57.04,0,.48.02.96.03,1.44.04,2.51.07,5.03.07,7.54,0,3.05-.04,6.1-.1,9.15,0,.27,0,.54-.01.81-.07,3.09-.17,6.19-.31,9.28,0,.08,0,.17-.01.25-.86,19.32-2.98,38.57-6.34,57.43h.02c-2.26,12.7-5.09,25.26-8.48,37.69h-.01c-4.21,15.46-9.32,30.76-15.25,45.71-.04.1-.08.2-.12.31-1.28,3.23-2.61,6.44-3.97,9.63-1.18,2.77-2.38,5.53-3.62,8.27-.65,1.44-1.32,2.86-1.98,4.28-6.08,13.13-12.79,25.9-20.11,38.29h0c-13.08,22.12-28.24,43.22-45.05,62.73h0c-7.03,8.15-14.38,16.08-22.06,23.75-1.99,1.99-4,3.94-6.02,5.88-1.2,1.16-2.41,2.31-3.63,3.45-1.12,1.06-2.25,2.11-3.39,3.15-1.5,1.38-3.01,2.75-4.53,4.11-.77.69-1.54,1.37-2.31,2.05-1.89,1.66-3.78,3.32-5.7,4.95-.3.26-.61.51-.91.77-12.11,10.26-24.78,19.88-37.88,28.73l.02.03c-10.74,7.26-21.81,14.01-33.18,20.27-2.39,1.32-4.81,2.62-7.23,3.89-.63.33-1.27.67-1.9,1-2.12,1.11-4.26,2.19-6.4,3.26-.95.48-1.91.95-2.86,1.42-1.91.94-3.84,1.87-5.77,2.78-1.21.57-2.43,1.14-3.65,1.7-1.75.81-3.49,1.61-5.25,2.39-1.41.63-2.83,1.24-4.26,1.86-1.88.82-3.76,1.64-5.66,2.43-.21.09-.43.18-.64.27-2.83,1.17-5.68,2.32-8.53,3.43-.1.04-.19.07-.29.11-5.94,2.31-11.92,4.49-17.94,6.53h0c-12.22,4.15-24.59,7.75-37.1,10.77v-.02c-24.93,6.02-50.62,9.86-76.36,11.39h0c-8.7.51-17.45.78-26.24.78-4.35,0-8.69-.07-13.01-.2-25.6-.75-51.2-3.75-76.1-8.94v.02c-12.61-2.62-25.1-5.81-37.43-9.57h0c-12.26-3.73-24.39-8.02-36.32-12.84-.06-.02-.11-.04-.17-.07-2.59-1.05-5.18-2.13-7.75-3.23-1.49-.64-2.98-1.3-4.46-1.95-1.61-.71-3.23-1.41-4.83-2.14-1.29-.58-2.56-1.19-3.84-1.79-1.82-.85-3.64-1.69-5.44-2.56-.46-.22-.91-.45-1.36-.68-2.48-1.21-4.96-2.44-7.41-3.7h0c-11.5-5.87-22.69-12.27-33.58-19.13h0c-16.28-10.28-31.96-21.69-46.79-34.06-.11-.09-.22-.19-.33-.28-2.32-1.94-4.63-3.91-6.91-5.89-.49-.43-.98-.87-1.47-1.3-1.93-1.7-3.86-3.41-5.76-5.14-4.97-4.53-9.85-9.18-14.63-13.96-4.67-4.67-9.2-9.43-13.63-14.27-1.6-1.75-3.18-3.52-4.75-5.29-.58-.65-1.15-1.3-1.72-1.96-1.75-2-3.48-4.02-5.2-6.05-.38-.46-.76-.92-1.14-1.37-1.65-1.98-3.28-3.96-4.9-5.97-.22-.27-.44-.54-.66-.82-10.02-12.5-19.36-25.55-27.91-39.02l-25.33,16.08c4.76,7.49,9.77,14.85,14.96,22.08h-.08c8.78,12.22,18.18,24.02,28.17,35.4.12.14.24.28.36.42,2.08,2.36,4.19,4.71,6.32,7.03.17.18.33.37.49.55h0c4.49,4.88,9.09,9.69,13.8,14.4,39.42,39.42,84.83,71.01,135.14,94.06.25.11.49.23.74.34,1.26.58,2.53,1.15,3.8,1.71.39.17.78.35,1.17.52,1.2.53,2.4,1.06,3.61,1.58.43.18.86.37,1.29.55.69.3,1.38.6,2.07.89.51.22,1.03.43,1.54.64.42.18.84.35,1.27.53,1.28.53,2.57,1.06,3.86,1.58.17.07.34.14.51.21,49.43,19.95,101.43,31.09,154.93,33.21.18,0,.36.02.53.02,1.09.04,2.19.08,3.28.11.6.02,1.21.04,1.81.06h0c4.41.12,8.83.19,13.27.19,58.21,0,114.82-10.58,168.46-31.47.13-.05.26-.1.39-.15,3.03-1.18,6.04-2.4,9.05-3.64.26-.11.51-.21.77-.32.78-.32,1.56-.64,2.33-.97,2.24-.95,4.47-1.92,6.69-2.9.07-.03.15-.07.22-.1,50.41-22.28,96.01-53.05,135.73-91.58.13-.13.27-.25.4-.38h0c1.6-1.55,3.18-3.11,4.76-4.69,38.97-38.97,70.3-83.81,93.28-133.44.11-.24.22-.48.33-.72.61-1.33,1.22-2.65,1.82-3.99Z" style="fill:#1876d1; stroke-width:0px;"/><path d="M782.77,235.34c-11.89,0-23.41-2.32-34.25-6.91-10.48-4.43-19.89-10.78-27.98-18.87-8.09-8.09-14.43-17.5-18.87-27.98-4.58-10.84-6.91-22.36-6.91-34.25s2.32-23.41,6.91-34.25c4.43-10.48,10.78-19.89,18.87-27.98,8.09-8.09,17.5-14.43,27.98-18.87,10.84-4.58,22.36-6.91,34.25-6.91s23.41,2.32,34.25,6.91c10.48,4.43,19.89,10.78,27.98,18.87,8.09,8.09,14.43,17.5,18.87,27.98,4.58,10.84,6.91,22.36,6.91,34.25s-2.32,23.41-6.91,34.25c-4.43,10.48-10.78,19.89-18.87,27.98-8.09,8.09-17.5,14.43-27.98,18.87-10.84,4.58-22.36,6.91-34.25,6.91Z" style="fill:#d9e021; stroke-width:0px;"/><path d="M782.77,247.34c-13.5,0-26.6-2.64-38.92-7.86-11.91-5.04-22.6-12.25-31.79-21.43s-16.39-19.88-21.43-31.79c-5.21-12.33-7.86-25.42-7.86-38.92s2.64-26.6,7.86-38.92c5.04-11.91,12.25-22.6,21.43-31.79,9.19-9.19,19.88-16.4,31.79-21.43,12.33-5.21,25.42-7.86,38.92-7.86s26.6,2.64,38.92,7.86c11.91,5.04,22.6,12.25,31.79,21.43,9.18,9.18,16.39,19.88,21.43,31.79,5.21,12.33,7.86,25.42,7.86,38.92s-2.64,26.6-7.86,38.92c-5.04,11.91-12.25,22.6-21.43,31.79s-19.88,16.4-31.79,21.43c-12.33,5.21-25.42,7.86-38.92,7.86ZM782.77,71.34c-10.27,0-20.22,2.01-29.57,5.96-9.05,3.83-17.18,9.31-24.17,16.3-6.99,6.99-12.47,15.12-16.3,24.17-3.96,9.35-5.96,19.3-5.96,29.57s2.01,20.22,5.96,29.57c3.83,9.05,9.31,17.18,16.3,24.17s15.12,12.47,24.17,16.3c9.35,3.96,19.3,5.96,29.57,5.96s20.22-2.01,29.58-5.96c9.05-3.83,17.18-9.31,24.17-16.3s12.47-15.12,16.3-24.17c3.96-9.35,5.96-19.3,5.96-29.57s-2.01-20.22-5.96-29.57c-3.83-9.05-9.31-17.18-16.3-24.17-6.99-6.99-15.12-12.47-24.17-16.3-9.35-3.96-19.3-5.96-29.57-5.96Z" style="fill:#1876d1; stroke-width:0px;"/><path d="M189.11,578.93c0-7.49-1.84-13.23-5.53-17.21-3.69-3.98-10.34-7.87-19.96-11.65-9.62-3.78-16.98-7.75-22.07-11.9-5.09-4.16-8.9-8.9-11.43-14.22-2.53-5.32-3.79-11.42-3.79-18.29,0-11.89,3.61-21.68,10.82-29.37,7.21-7.69,16.66-11.54,28.34-11.54,8,0,15.12,1.96,21.36,5.89s11.06,9.39,14.43,16.39,5.06,14.69,5.06,23.07h-17.24c0-9.28-2.03-16.46-6.09-21.54-4.06-5.08-9.9-7.63-17.52-7.63-6.93,0-12.31,2.13-16.12,6.4-3.81,4.27-5.71,10.26-5.71,17.96,0,6.33,2.06,11.63,6.18,15.9s10.49,8.09,19.11,11.46c13.43,4.89,23.03,10.9,28.81,18.05,5.78,7.15,8.67,16.49,8.67,28.03,0,12.16-3.59,21.9-10.78,29.22-7.18,7.32-16.96,10.98-29.33,10.98-7.93,0-15.26-1.91-21.97-5.72-6.72-3.81-11.99-9.17-15.83-16.08-3.84-6.91-5.76-14.82-5.76-23.76h17.24c0,9.28,2.36,16.49,7.07,21.64,4.71,5.15,11.13,7.73,19.25,7.73,7.56,0,13.24-2.13,17.05-6.39,3.81-4.26,5.72-10.07,5.72-17.42Z" style="fill:#fff; stroke-width:0px;"/><path d="M246.41,478.34v27h15.27v14.74h-15.27v69.25c0,4.4.66,7.74,1.97,10.01,1.31,2.27,3.56,3.4,6.75,3.4,2.19,0,4.4-.41,6.65-1.24l-.19,15.37c-3.75,1.37-7.59,2.05-11.53,2.05-6.56,0-11.56-2.58-14.99-7.73-3.44-5.15-5.15-12.44-5.15-21.85v-69.26h-15.46v-14.74h15.46v-27h16.49Z" style="fill:#fff; stroke-width:0px;"/><path d="M331.63,616.86c-1-2.4-1.72-6.46-2.16-12.16-5.87,9.48-13.37,14.22-22.49,14.22s-16.35-2.83-21.5-8.5c-5.15-5.67-7.73-13.66-7.73-23.96,0-11.34,3.5-20.34,10.49-27,7-6.66,16.58-10.07,28.77-10.2h12.18v-11.85c0-6.66-1.34-11.4-4.03-14.22-2.69-2.82-6.78-4.23-12.27-4.23-5,0-9.06,1.63-12.18,4.9-3.12,3.26-4.68,7.4-4.68,12.42h-16.58c0-5.7,1.53-11.15,4.59-16.34,3.06-5.19,7.18-9.26,12.37-12.21,5.18-2.95,10.96-4.43,17.33-4.43,10.37,0,18.25,2.83,23.66,8.5,5.4,5.67,8.17,13.93,8.29,24.79v56.27c.06,8.59,1.12,16.04,3.19,22.37v1.65h-17.24ZM309.52,602.33c4.06,0,7.93-1.24,11.62-3.71,3.68-2.47,6.37-5.57,8.06-9.28v-26.59h-9.37c-7.87.14-14.09,2.08-18.65,5.82-4.56,3.75-6.84,8.98-6.84,15.72,0,6.32,1.16,10.91,3.47,13.76,2.31,2.85,6.21,4.28,11.71,4.28Z" style="fill:#fff; stroke-width:0px;"/><path d="M411.32,522.45c-2.31-.48-4.81-.72-7.5-.72-8.5,0-14.43,5.12-17.8,15.36v79.77h-16.58v-111.52h16.12l.28,11.34c4.43-8.93,10.71-13.4,18.83-13.4,2.62,0,4.81.48,6.56,1.44l.09,17.73Z" style="fill:#fff; stroke-width:0px;"/><path d="M422.43,556.05c0-17.18,2.92-30.27,8.76-39.27,5.84-9,14.23-13.5,25.16-13.5,9.68,0,17.24,4.33,22.67,12.99v-57.72h16.58v158.31h-15.18l-.84-11.96c-5.43,9.35-13.21,14.02-23.33,14.02s-18.73-4.48-24.69-13.45c-5.97-8.97-9.01-21.63-9.14-37.98v-11.44ZM439.01,566.4c0,12.49,1.69,21.67,5.06,27.54,3.37,5.87,8.87,8.8,16.49,8.8,8.25,0,14.4-4.56,18.46-13.69v-56.21c-4.25-8.92-10.37-13.38-18.36-13.38s-13.12,2.93-16.49,8.8c-3.37,5.87-5.09,14.88-5.15,27.02v11.12Z" style="fill:#fff; stroke-width:0px;"/><path d="M538.38,475.76c0,3.09-.78,5.67-2.34,7.73-1.56,2.06-3.94,3.09-7.12,3.09s-5.47-1.03-7.03-3.09c-1.56-2.06-2.34-4.64-2.34-7.73s.78-5.7,2.34-7.83c1.56-2.13,3.9-3.19,7.03-3.19s5.48,1.08,7.07,3.25c1.59,2.16,2.39,4.76,2.39,7.78ZM537.07,616.86h-16.58v-111.52h16.58v111.52Z" style="fill:#fff; stroke-width:0px;"/><path d="M613.38,616.86c-1-2.4-1.72-6.46-2.16-12.16-5.87,9.48-13.37,14.22-22.49,14.22s-16.35-2.83-21.5-8.5c-5.15-5.67-7.73-13.66-7.73-23.96,0-11.34,3.5-20.34,10.49-27,7-6.66,16.58-10.07,28.77-10.2h12.18v-11.85c0-6.66-1.34-11.4-4.03-14.22-2.69-2.82-6.78-4.23-12.27-4.23-5,0-9.06,1.63-12.18,4.9-3.12,3.26-4.68,7.4-4.68,12.42h-16.58c0-5.7,1.53-11.15,4.59-16.34,3.06-5.19,7.18-9.26,12.37-12.21,5.18-2.95,10.96-4.43,17.33-4.43,10.37,0,18.25,2.83,23.66,8.5,5.4,5.67,8.17,13.93,8.29,24.79v56.27c.06,8.59,1.12,16.04,3.19,22.37v1.65h-17.24ZM591.27,602.33c4.06,0,7.93-1.24,11.62-3.71,3.68-2.47,6.37-5.57,8.06-9.28v-26.59h-9.37c-7.87.14-14.09,2.08-18.65,5.82-4.56,3.75-6.84,8.98-6.84,15.72,0,6.32,1.16,10.91,3.47,13.76,2.31,2.85,6.21,4.28,11.71,4.28Z" style="fill:#fff; stroke-width:0px;"/><path d="M669.09,616.86h-16.58v-158.31h16.58v158.31Z" style="fill:#fff; stroke-width:0px;"/></g></svg>