<?xml version="1.0" encoding="UTF-8"?>
<svg id="b" xmlns="http://www.w3.org/2000/svg" version="1.1" viewBox="0 0 480.1 120.9">
  <defs>
    <style>
      .cls-1 {
        fill: #1876d1;
      }

      .cls-1, .cls-2, .cls-3 {
        stroke-width: 0px;
      }

      .cls-2 {
        fill: #d9e021;
      }

      .cls-3 {
        fill: #ccc;
      }
    </style>
  </defs>
  <g id="c">
    <circle class="cls-3" cx="60.3" cy="60.6" r="34.9"/>
    <rect class="cls-1" x="32" y="33.7" width="99.8" height="10.4" transform="translate(-3.5 69.3) rotate(-45)"/>
    <path class="cls-1" d="M51,15.8l-2.9-14.2c-7.8,1.6-15,4.7-21.6,9.2l8.2,12c5-3.4,10.5-5.7,16.4-6.9h0Z"/>
    <path class="cls-1" d="M60.3,14.9c5.9,0,11.7,1.1,17.1,3.3l5.4-13.5C75.7,1.8,68.1.3,60.3.3h-.5v14.5h.5Z"/>
    <path class="cls-1" d="M14.6,60.6c0-2.9.3-5.8.8-8.7l-14.3-2.7C.4,52.9,0,56.8,0,60.6s.4,8.1,1.2,12.1l14.3-2.9c-.6-3-.9-6.1-.9-9.2h0Z"/>
    <path class="cls-1" d="M62.5,120.8c.3,0,.5,0,.8,0,.2,0,.4,0,.6,0,.3,0,.6,0,.9,0,.2,0,.3,0,.5,0,.3,0,.7,0,1,0,0,0,.2,0,.3,0,11.8-1.2,22.8-5.8,31.9-13.4,2.9-2.4,5.6-5.1,8.1-8,7.7-9.3,12.4-20.5,13.6-32.6,0,0,0-.2,0-.3,0-.4,0-.8,0-1.2,0-.2,0-.5,0-.8,0-.2,0-.5,0-.7,0-.3,0-.7,0-1,0-.2,0-.3,0-.5,0-.5,0-1,0-1.5v-.7h0v-.4c0-.2,0-.5,0-.8,0-.2,0-.5,0-.7s0-.5,0-.8c0-.2,0-.5,0-.7,0-.3,0-.5,0-.8,0-.2,0-.5,0-.7,0-.3,0-.6,0-.8,0-.2,0-.4,0-.6,0-.3,0-.6-.1-.9,0-.2,0-.3,0-.5,0-.3,0-.7-.2-1,0-.1,0-.2,0-.3,0-.4-.1-.8-.2-1.2,0,0,0,0,0-.1-1.8-9.7-5.9-18.7-12.1-26.5,0,0,0,0-.1-.1-.2-.3-.5-.6-.7-.8-.2-.2-.3-.4-.5-.6-.1-.1-.2-.3-.4-.4-.3-.3-.5-.6-.8-.9,0,0,0,0,0,0-1.6-1.8-3.4-3.5-5.2-5.1,0,0-.1-.1-.2-.2-.2-.2-.5-.4-.8-.6-.2-.1-.3-.3-.5-.4-.2-.1-.3-.2-.4-.4-.3-.2-.6-.5-.9-.7,0,0,0,0,0,0-1-.8-2-1.5-3-2.2h0c-.2-.1-.4-.2-.6-.4l-8,12.2c3.2,2.1,6,4.5,8.5,7.2h0c.9,1,1.7,1.9,2.5,2.9.1.2.3.3.4.5,0,0,0,0,0,0,.4.6.9,1.2,1.3,1.8h0c1.7,2.5,3.1,5.1,4.3,7.8h0c1.2,2.8,2.1,5.6,2.7,8.5,0,0,0,0,0,.1,0,.3.1.6.2.9,0,.1,0,.2,0,.4,0,.2,0,.5.1.7,0,.2,0,.3,0,.5,0,.2,0,.4,0,.6,0,.2,0,.3,0,.5s0,.4,0,.5,0,.4,0,.5,0,.4,0,.5c0,.2,0,.4,0,.5s0,.4,0,.6c0,.2,0,.4,0,.5,0,.2,0,.4,0,.6,0,.2,0,.3,0,.5,0,.2,0,.4,0,.6v.8c0,.4,0,.7,0,1.1,0,.2,0,.3,0,.5,0,.2,0,.4,0,.7,0,.2,0,.4,0,.6,0,.2,0,.4,0,.5,0,.2,0,.4,0,.6,0,.2,0,.3,0,.5,0,.2,0,.4,0,.6,0,.2,0,.3,0,.5,0,.2,0,.4,0,.6s0,.4,0,.6c0,.2,0,.3,0,.5,0,.2,0,.4,0,.6,0,.1,0,.3,0,.4,0,.2,0,.5-.1.7,0,0,0,.2,0,.3,0,.3-.1.6-.2.8,0,0,0,.1,0,.2,0,.3-.2.7-.2,1h0c-.5,2.2-1.2,4.3-2.1,6.4h0c-1.1,2.8-2.6,5.4-4.2,7.9h0c-.4.6-.8,1.2-1.2,1.8,0,0,0,.1-.1.2-.1.2-.3.4-.4.6-.1.2-.3.4-.4.5,0,0-.1.1-.2.2-.7.8-1.3,1.6-2.1,2.4h0c-.3.3-.6.6-.8.9h0c-.1.1-.3.3-.4.4-1.1,1.1-2.2,2.1-3.3,3-1.1.9-2.3,1.8-3.6,2.7h0c-2.5,1.7-5.1,3.1-7.9,4.2h0c-3.4,1.4-6.9,2.4-10.5,2.9,0,0-.2,0-.2,0-.2,0-.4,0-.7,0-.2,0-.3,0-.4,0-.2,0-.4,0-.5,0-.2,0-.4,0-.6,0-.2,0-.3,0-.5,0-.2,0-.4,0-.6,0-.2,0-.3,0-.5,0-.2,0-.4,0-.6,0-.2,0-.4,0-.6,0s-.4,0-.5,0h-1.2c-3,0-5.9-.3-8.8-.8h0c-5.9-1.2-11.4-3.4-16.5-6.8h0c-2.5-1.7-4.8-3.6-7-5.7-.1-.1-.2-.2-.4-.4,0,0,0,0-.1-.1h0c-4-4.1-7.2-8.9-9.4-14.2l-13.4,5.6c1.3,3,2.7,5.8,4.4,8.6h0c.1.2.2.4.4.5,0,0,0,0,0,0,.2.4.5.8.8,1.1,0,0,.1.2.2.3.2.3.4.7.7,1,.1.2.3.4.4.6.2.3.5.6.7.9.2.3.5.6.7.9.1.1.2.3.3.4.2.3.5.6.7.8.1.2.2.3.4.4.2.3.5.5.7.8.1.2.3.3.4.4.2.3.5.5.7.8.1.1.3.3.4.4.2.3.5.5.8.8.1,0,.2.2.3.3,0,0,0,0,0,0s0,0,0,0h0c11.4,11.3,26.4,17.5,42.4,17.5h.8c.3,0,.5,0,.8,0,.2,0,.5,0,.7,0h0Z"/>
    <path class="cls-1" d="M27.7,28.5l-10.4-10.2c-5.6,5.7-9.9,12.3-12.9,19.6l13.5,5.5c2.3-5.6,5.6-10.6,9.8-14.9h0Z"/>
    <path class="cls-2" d="M95.2,51c-3.4,0-6.7-.7-9.8-2-3-1.3-5.7-3.1-8.1-5.4s-4.2-5-5.4-8c-1.3-3.1-2-6.4-2-9.9s.7-6.7,2-9.9c1.3-3,3.1-5.7,5.4-8.1,2.3-2.3,5-4.2,8.1-5.4,3.1-1.3,6.4-2,9.8-2s6.7.7,9.8,2c3,1.3,5.7,3.1,8.1,5.4s4.2,5,5.4,8.1c1.3,3.1,2,6.4,2,9.9s-.7,6.7-2,9.9c-1.3,3-3.1,5.7-5.4,8-2.3,2.3-5,4.2-8.1,5.4-3.1,1.3-6.4,2-9.8,2Z"/>
    <path class="cls-1" d="M95.2,12.9c1.7,0,3.4.3,5,1,1.5.6,2.9,1.6,4.1,2.8,1.2,1.2,2.1,2.6,2.8,4.1.7,1.6,1,3.2,1,5s-.3,3.4-1,5c-.7,1.5-1.6,2.9-2.8,4.1-1.2,1.2-2.6,2.1-4.1,2.8-1.6.7-3.2,1-5,1s-3.4-.3-5-1c-1.5-.7-2.9-1.6-4.1-2.8-1.2-1.2-2.1-2.6-2.8-4.1-.7-1.6-1-3.2-1-5s.3-3.4,1-5c.7-1.5,1.6-2.9,2.8-4.1,1.2-1.2,2.6-2.1,4.1-2.8,1.6-.7,3.2-1,5-1M95.2.4c-3.4,0-6.7.7-9.8,2-3,1.3-5.7,3.1-8.1,5.4-2.3,2.3-4.2,5-5.4,8.1-1.3,3.1-2,6.4-2,9.9s.7,6.7,2,9.9c1.3,3,3.1,5.7,5.4,8,2.3,2.3,5,4.2,8.1,5.4,3.1,1.3,6.4,2,9.8,2s6.7-.7,9.8-2c3-1.3,5.7-3.1,8.1-5.4s4.2-5,5.4-8c1.3-3.1,2-6.4,2-9.9s-.7-6.7-2-9.9c-1.3-3-3.1-5.7-5.4-8.1-2.3-2.3-5-4.2-8.1-5.4-3.1-1.3-6.4-2-9.8-2h0Z"/>
    <path class="cls-1" d="M164.7,109.5c-5.1,0-9.9-1.2-14.2-3.7-4.3-2.5-7.8-6-10.3-10.4-2.5-4.4-3.7-9.6-3.7-15.3v-1h12.8v1c0,5.5,1.4,9.8,4.2,12.9,2.8,3,6.5,4.5,11.3,4.5s7.8-1.2,9.9-3.7c2.2-2.5,3.3-5.9,3.3-10.2s-1.1-7.8-3.2-10.1c-2.2-2.4-6.3-4.7-12.1-7-6.1-2.4-10.8-5-14.1-7.6-3.3-2.7-5.8-5.8-7.4-9.2-1.6-3.5-2.5-7.4-2.5-11.9,0-7.7,2.4-14.1,7-19,4.7-5,10.9-7.5,18.4-7.5s9.8,1.3,13.9,3.8,7.2,6.1,9.4,10.7c2.2,4.5,3.3,9.5,3.3,14.9v1h-12.8v-1c0-5.5-1.2-9.9-3.6-12.9-2.4-3-5.7-4.4-10.2-4.4s-7.1,1.2-9.3,3.7-3.3,6-3.3,10.6,1.2,6.8,3.6,9.2c2.5,2.5,6.4,4.9,11.6,6.9,8.5,3.1,14.7,7,18.4,11.6,3.7,4.6,5.6,10.7,5.6,18.2s-2.4,14.2-7,19c-4.7,4.8-11.1,7.2-19.1,7.2h0Z"/>
    <path class="cls-1" d="M179,83.5c0-4.7-1.1-8.3-3.5-10.8-2.3-2.5-6.5-4.9-12.5-7.3-6-2.4-10.6-4.8-13.8-7.4-3.2-2.6-5.6-5.6-7.1-8.9-1.6-3.3-2.4-7.1-2.4-11.4,0-7.4,2.3-13.6,6.8-18.4,4.5-4.8,10.4-7.2,17.7-7.2s9.4,1.2,13.4,3.7c3.9,2.5,6.9,5.9,9,10.2s3.2,9.2,3.2,14.4h-10.8c0-5.8-1.3-10.3-3.8-13.5s-6.2-4.8-11-4.8-7.7,1.3-10.1,4-3.6,6.4-3.6,11.2,1.3,7.3,3.9,9.9c2.6,2.7,6.6,5.1,11.9,7.2,8.4,3.1,14.4,6.8,18,11.3,3.6,4.5,5.4,10.3,5.4,17.5s-2.2,13.7-6.7,18.3c-4.5,4.6-10.6,6.9-18.3,6.9s-9.5-1.2-13.7-3.6c-4.2-2.4-7.5-5.7-9.9-10.1s-3.6-9.3-3.6-14.9h10.8c0,5.8,1.5,10.3,4.4,13.5,2.9,3.2,7,4.8,12,4.8s8.3-1.3,10.7-4c2.4-2.7,3.6-6.3,3.6-10.9h0Z"/>
    <path class="cls-1" d="M217.1,109.5c-4.4,0-7.9-1.8-10.2-5.3-2.2-3.4-3.4-8.2-3.4-14.2v-42.3h-9.7v-11.2h9.7v-16.9h12.3v16.9h9.6v11.2h-9.6v42.3c0,2.6.4,4.5,1.1,5.8.6,1.1,1.7,1.6,3.4,1.6s2.5-.2,3.8-.7l1.4-.5v11.8c-.1,0-.8.2-.8.2-2.4.9-5,1.3-7.6,1.3h0Z"/>
    <path class="cls-1" d="M214.8,20.6v16.9h9.6v9.2h-9.6v43.3c0,2.8.4,4.8,1.2,6.3s2.2,2.1,4.2,2.1,2.8-.3,4.2-.8v9.6c-2.5.8-4.9,1.3-7.3,1.3-4.1,0-7.2-1.6-9.4-4.8-2.1-3.2-3.2-7.8-3.2-13.7v-43.3h-9.7v-9.2h9.7v-16.9h10.3Z"/>
    <path class="cls-1" d="M252.7,109.5c-6,0-10.8-1.9-14.2-5.6-3.4-3.7-5.1-9-5.1-15.7s2.3-13.3,6.9-17.6c4.5-4.3,10.8-6.6,18.7-6.7h6.6v-6.4c0-3.9-.8-6.6-2.2-8.2-1.5-1.5-3.8-2.3-7-2.3s-5.1.9-6.9,2.8c-1.8,1.9-2.6,4.2-2.6,7.1v1h-12.4v-1c0-3.7,1-7.3,3-10.7,2-3.4,4.7-6.1,8.1-8s7.2-2.9,11.3-2.9c6.7,0,12,1.9,15.5,5.6,3.5,3.7,5.4,9.2,5.5,16.2v35.2c0,5.2.7,9.8,1.9,13.7v.2s0,2.2,0,2.2h-12.5l-.3-.6c-.5-1.2-.9-2.9-1.1-5.2-3.6,4.7-8.1,7.1-13.3,7.1h0ZM260.7,74.4c-4.7,0-8.4,1.2-11,3.4-2.6,2.2-3.9,5.1-3.9,9.1s.6,6.4,1.9,8c1.2,1.5,3.4,2.3,6.6,2.3s4.6-.7,6.7-2.2c2.1-1.4,3.6-3.1,4.6-5.2v-15.4h-4.9Z"/>
    <path class="cls-1" d="M268.1,107.2c-.6-1.5-1.1-4-1.4-7.6-3.7,5.9-8.4,8.9-14.1,8.9s-10.2-1.8-13.4-5.3-4.8-8.5-4.8-15,2.2-12.7,6.6-16.9,10.4-6.3,18-6.4h7.6v-7.4c0-4.2-.8-7.1-2.5-8.9s-4.2-2.6-7.7-2.6-5.7,1-7.6,3.1c-1.9,2-2.9,4.6-2.9,7.8h-10.4c0-3.6,1-7,2.9-10.2,1.9-3.2,4.5-5.8,7.7-7.6,3.2-1.8,6.9-2.8,10.8-2.8,6.5,0,11.4,1.8,14.8,5.3,3.4,3.5,5.1,8.7,5.2,15.5v35.2c0,5.4.7,10,2,14v1h-10.8,0ZM254.3,98.1c2.5,0,5-.8,7.3-2.3,2.3-1.6,4-3.5,5-5.8v-16.6h-5.9c-4.9,0-8.8,1.3-11.7,3.6s-4.3,5.6-4.3,9.8.7,6.8,2.2,8.6c1.4,1.8,3.9,2.7,7.3,2.7h0Z"/>
    <path class="cls-1" d="M290.7,108.2V36.5h12v4.6c2.9-3.9,6.5-5.9,11-5.9s3.4.3,4.6,1l.5.3v12.9c0,0-1.1-.2-1.1-.2-1.4-.3-2.9-.4-4.5-.4-4.8,0-8.1,2.9-10.1,8.8v50.7h-12.4,0Z"/>
    <path class="cls-1" d="M317.9,48.2c-1.5-.3-3-.5-4.7-.5-5.3,0-9,3.2-11.1,9.6v49.9h-10.4V37.5h10.1l.2,7.1c2.8-5.6,6.7-8.4,11.8-8.4s3,.3,4.1.9v11.1c0,0,0,0,0,0Z"/>
    <path class="cls-1" d="M346,109.5c-6.9,0-12.4-3-16.3-8.9-3.8-5.8-5.8-13.9-5.9-24.3v-7.2c0-10.9,1.9-19.3,5.6-25.1,3.8-5.9,9.4-8.9,16.6-8.9s9.8,2,13.2,6V7.2h12.4v101h-11.4l-.4-5.5c-3.5,4.5-8.1,6.8-13.8,6.8ZM348.8,47.3c-4.4,0-7.5,1.6-9.5,5-2,3.5-3,9-3.1,16.4v6.9c0,7.6,1,13.2,3,16.7,1.9,3.4,5,5,9.5,5s8.2-2.5,10.5-7.8v-34.7c-2.5-5.1-5.9-7.6-10.5-7.6h0Z"/>
    <path class="cls-1" d="M324.9,69.2c0-10.7,1.8-18.9,5.5-24.6,3.6-5.6,8.9-8.4,15.7-8.4s10.8,2.7,14.2,8.1V8.2h10.4v99h-9.5l-.5-7.5c-3.4,5.8-8.3,8.8-14.6,8.8s-11.7-2.8-15.4-8.4-5.6-13.5-5.7-23.8v-7.2h0ZM335.2,75.7c0,7.8,1,13.6,3.2,17.2,2.1,3.7,5.5,5.5,10.3,5.5s9-2.8,11.5-8.6v-35.2c-2.7-5.6-6.5-8.4-11.5-8.4s-8.2,1.8-10.3,5.5c-2.1,3.7-3.2,9.3-3.2,16.9v6.9h0Z"/>
    <path class="cls-1" d="M385.2,108.2V36.5h12.4v71.7h-12.4ZM391.5,26.7c-2.3,0-4-.8-5.2-2.3-1.1-1.5-1.7-3.3-1.7-5.4s.6-4,1.7-5.5c1.2-1.6,2.9-2.4,5.2-2.4s4,.8,5.2,2.4c1.1,1.5,1.7,3.4,1.7,5.5s-.6,4-1.7,5.4c-1.2,1.5-2.9,2.3-5.2,2.3Z"/>
    <path class="cls-1" d="M397.4,19c0,1.9-.5,3.5-1.5,4.8-1,1.3-2.5,1.9-4.5,1.9s-3.4-.6-4.4-1.9c-1-1.3-1.5-2.9-1.5-4.8s.5-3.6,1.5-4.9c1-1.3,2.4-2,4.4-2s3.4.7,4.4,2,1.5,3,1.5,4.9ZM396.5,107.2h-10.4V37.5h10.4v69.7Z"/>
    <path class="cls-1" d="M428.9,109.5c-6,0-10.8-1.9-14.2-5.6-3.4-3.7-5.1-9-5.1-15.7s2.3-13.3,6.9-17.6c4.5-4.3,10.8-6.6,18.7-6.7h6.6v-6.4c0-3.9-.8-6.6-2.2-8.2-1.5-1.5-3.8-2.3-7-2.3s-5.1.9-6.9,2.8c-1.8,1.9-2.6,4.2-2.6,7.1v1h-12.4v-1c0-3.7,1-7.3,3-10.7,2-3.4,4.7-6.1,8.1-8s7.2-2.9,11.3-2.9c6.7,0,12,1.9,15.5,5.6,3.5,3.7,5.4,9.2,5.5,16.2v35.2c0,5.2.7,9.8,1.9,13.7v.2s0,2.2,0,2.2h-12.5l-.3-.6c-.5-1.2-.9-2.9-1.1-5.2-3.6,4.7-8.1,7.1-13.3,7.1h0ZM436.9,74.4c-4.7,0-8.4,1.2-11,3.4-2.6,2.2-3.9,5.1-3.9,9.1s.6,6.4,1.9,8c1.2,1.5,3.4,2.3,6.5,2.3s4.6-.7,6.7-2.2c2.1-1.4,3.6-3.1,4.6-5.2v-15.4h-4.9Z"/>
    <path class="cls-1" d="M444.3,107.2c-.6-1.5-1.1-4-1.4-7.6-3.7,5.9-8.4,8.9-14.1,8.9s-10.2-1.8-13.5-5.3-4.8-8.5-4.8-15,2.2-12.7,6.6-16.9,10.4-6.3,18-6.4h7.6v-7.4c0-4.2-.8-7.1-2.5-8.9s-4.2-2.6-7.7-2.6-5.7,1-7.6,3.1c-2,2-2.9,4.6-2.9,7.8h-10.4c0-3.6,1-7,2.9-10.2,1.9-3.2,4.5-5.8,7.7-7.6,3.2-1.8,6.9-2.8,10.8-2.8,6.5,0,11.4,1.8,14.8,5.3,3.4,3.5,5.1,8.7,5.2,15.5v35.2c0,5.4.7,10,2,14v1h-10.8,0ZM430.5,98.1c2.5,0,5-.8,7.3-2.3,2.3-1.6,4-3.5,5-5.8v-16.6h-5.9c-4.9,0-8.8,1.3-11.7,3.6s-4.3,5.6-4.3,9.8.7,6.8,2.2,8.6c1.4,1.8,3.9,2.7,7.3,2.7h0Z"/>
    <rect class="cls-1" x="467.7" y="7.2" width="12.4" height="101"/>
    <path class="cls-1" d="M479.1,107.2h-10.4V8.2h10.4v99Z"/>
  </g>
</svg>